<svg xmlns="http://www.w3.org/2000/svg" viewBox="0 0 300 400" width="300" height="400">
  <defs>
    <filter id="shadow-twocolumn" x="-5%" y="-3%" width="110%" height="108%">
      <feDropShadow dx="0" dy="4" stdDeviation="8" flood-color="#000" flood-opacity="0.08"/>
    </filter>
  </defs>
  <!-- Page background -->
  <rect width="300" height="400" rx="8" fill="#f0f9ff" filter="url(#shadow-twocolumn)"/>
  <rect width="300" height="400" rx="8" fill="none" stroke="#e2e8f0" stroke-width="1"/>
  <rect width="300" height="65" rx="8 8 0 0" fill="#0369a1"/>
  <rect x="20" y="18" width="140" height="11" rx="5.5" fill="white" opacity="0.9"/>
  <rect x="20" y="36" width="200" height="6" rx="3" fill="white" opacity="0.4"/>
  <rect x="20" y="48" width="260" height="5" rx="2.5" fill="white" opacity="0.25"/>
  <!-- Left column -->
  <g transform="translate(20, 80)">
    <rect x="0" y="0" width="60" height="7" rx="3.5" fill="#0369a1" opacity="0.6"/>
    <rect x="0" y="12" width="111.6" height="6" rx="3" fill="#0c4a6e" opacity="0.3"/>
<rect x="0" y="24" width="84.0" height="6" rx="3" fill="#0c4a6e" opacity="0.3"/>
<rect x="0" y="36" width="79.19999999999999" height="6" rx="3" fill="#0c4a6e" opacity="0.3"/>
<rect x="0" y="48" width="80.39999999999999" height="6" rx="3" fill="#0c4a6e" opacity="0.3"/>

    <rect x="0" y="65" width="60" height="7" rx="3.5" fill="#0369a1" opacity="0.6"/>
    <rect x="0" y="77" width="97.19999999999999" height="6" rx="3" fill="#0c4a6e" opacity="0.3"/>
<rect x="0" y="89" width="107.99999999999999" height="6" rx="3" fill="#0c4a6e" opacity="0.3"/>
<rect x="0" y="101" width="75.6" height="6" rx="3" fill="#0c4a6e" opacity="0.3"/>
<rect x="0" y="113" width="116.39999999999999" height="6" rx="3" fill="#0c4a6e" opacity="0.3"/>
<rect x="0" y="125" width="91.2" height="6" rx="3" fill="#0c4a6e" opacity="0.3"/>

    <rect x="0" y="140" width="60" height="7" rx="3.5" fill="#0369a1" opacity="0.6"/>
    <rect x="0" y="152" width="75.6" height="6" rx="3" fill="#0c4a6e" opacity="0.3"/>
<rect x="0" y="164" width="84.0" height="6" rx="3" fill="#0c4a6e" opacity="0.3"/>
<rect x="0" y="176" width="117.6" height="6" rx="3" fill="#0c4a6e" opacity="0.3"/>
<rect x="0" y="188" width="88.8" height="6" rx="3" fill="#0c4a6e" opacity="0.3"/>

  </g>
  <!-- Right column -->
  <rect x="155" y="80" width="1" height="280" fill="#0369a1" opacity="0.1"/>
  <g transform="translate(165, 80)">
    <rect x="0" y="0" width="55" height="7" rx="3.5" fill="#0369a1" opacity="0.6"/>
    <rect x="0" y="15" width="57" height="8" rx="4" fill="#0369a1" opacity="0.25"/>
<rect x="0" y="15" width="38.190000000000005" height="8" rx="4" fill="#0369a1" opacity="0.6"/>
<rect x="0" y="33" width="78" height="8" rx="4" fill="#0369a1" opacity="0.25"/>
<rect x="0" y="33" width="54.599999999999994" height="8" rx="4" fill="#0369a1" opacity="0.6"/>
<rect x="0" y="51" width="63" height="8" rx="4" fill="#0369a1" opacity="0.25"/>
<rect x="0" y="51" width="52.290000000000006" height="8" rx="4" fill="#0369a1" opacity="0.6"/>
<rect x="0" y="69" width="74" height="8" rx="4" fill="#0369a1" opacity="0.25"/>
<rect x="0" y="69" width="38.480000000000004" height="8" rx="4" fill="#0369a1" opacity="0.6"/>

    <rect x="0" y="100" width="55" height="7" rx="3.5" fill="#0369a1" opacity="0.6"/>
    <rect x="0" y="115" width="103.49999999999999" height="6" rx="3" fill="#0c4a6e" opacity="0.3"/>
<rect x="0" y="127" width="113.85" height="6" rx="3" fill="#0c4a6e" opacity="0.3"/>
<rect x="0" y="139" width="108.1" height="6" rx="3" fill="#0c4a6e" opacity="0.3"/>

    <rect x="0" y="160" width="55" height="7" rx="3.5" fill="#0369a1" opacity="0.6"/>
    <rect x="0" y="175" width="96.6" height="6" rx="3" fill="#0c4a6e" opacity="0.3"/>
<rect x="0" y="187" width="80.5" height="6" rx="3" fill="#0c4a6e" opacity="0.3"/>
<rect x="0" y="199" width="87.4" height="6" rx="3" fill="#0c4a6e" opacity="0.3"/>

  </g>
</svg>