<svg xmlns="http://www.w3.org/2000/svg" viewBox="0 0 300 400" width="300" height="400">
  <defs>
    <filter id="shadow-creative" x="-5%" y="-3%" width="110%" height="108%">
      <feDropShadow dx="0" dy="4" stdDeviation="8" flood-color="#000" flood-opacity="0.08"/>
    </filter>
  </defs>
  <!-- Page background -->
  <rect width="300" height="400" rx="8" fill="#fdf2f8" filter="url(#shadow-creative)"/>
  <rect width="300" height="400" rx="8" fill="none" stroke="#e2e8f0" stroke-width="1"/>
  <polygon points="0,0 300,0 300,100 0,130" fill="#db2777" opacity="0.1"/>
  <rect x="20" y="25" width="180" height="14" rx="7" fill="#db2777"/>
  <rect x="20" y="48" width="220" height="7" rx="3.5" fill="#831843" opacity="0.3"/>
  <rect x="20" y="62" width="150" height="6" rx="3" fill="#831843" opacity="0.2"/>
  <circle cx="270" cy="45" r="30" fill="#db2777" opacity="0.15"/>
  <circle cx="270" cy="45" r="22" fill="#db2777" opacity="0.2"/>
  <g transform="translate(20, 100)">
    <rect x="0" y="0" width="90" height="8" rx="4" fill="#db2777"/>
    <rect x="0" y="15" width="174.2" height="6" rx="3" fill="#831843" opacity="0.3"/>
<rect x="0" y="27" width="187.2" height="6" rx="3" fill="#831843" opacity="0.3"/>
<rect x="0" y="39" width="163.8" height="6" rx="3" fill="#831843" opacity="0.3"/>

    <rect x="0" y="58" width="90" height="8" rx="4" fill="#db2777"/>
    <rect x="0" y="73" width="257.4" height="6" rx="3" fill="#831843" opacity="0.3"/>
<rect x="0" y="85" width="192.4" height="6" rx="3" fill="#831843" opacity="0.3"/>
<rect x="0" y="97" width="156.0" height="6" rx="3" fill="#831843" opacity="0.3"/>
<rect x="0" y="109" width="179.39999999999998" height="6" rx="3" fill="#831843" opacity="0.3"/>

    <rect x="0" y="126" width="90" height="8" rx="4" fill="#db2777"/>
    <rect x="0" y="141" width="202.8" height="6" rx="3" fill="#831843" opacity="0.3"/>
<rect x="0" y="153" width="241.79999999999998" height="6" rx="3" fill="#831843" opacity="0.3"/>
<rect x="0" y="165" width="218.4" height="6" rx="3" fill="#831843" opacity="0.3"/>
<rect x="0" y="177" width="241.79999999999998" height="6" rx="3" fill="#831843" opacity="0.3"/>
<rect x="0" y="189" width="182.0" height="6" rx="3" fill="#831843" opacity="0.3"/>

    <rect x="0" y="204" width="90" height="8" rx="4" fill="#db2777"/>
    <rect x="0" y="219" width="179.39999999999998" height="6" rx="3" fill="#831843" opacity="0.3"/>
<rect x="0" y="231" width="189.79999999999998" height="6" rx="3" fill="#831843" opacity="0.3"/>
<rect x="0" y="243" width="158.6" height="6" rx="3" fill="#831843" opacity="0.3"/>

  </g>
</svg>